<svg width="40" height="40" viewBox="0 0 40 40" fill="none" xmlns="http://www.w3.org/2000/svg">
<g opacity="0.7">
<circle cx="20" cy="20" r="20" fill="#FCDCC5" fill-opacity="0.5"/>
<g clip-path="url(#clip0_161_468)">
<path d="M29.09 12.61C28.5792 12.099 27.9728 11.6936 27.3054 11.4171C26.6379 11.1405 25.9225 10.9982 25.2 10.9982C24.4775 10.9982 23.7621 11.1405 23.0946 11.4171C22.4272 11.6936 21.8208 12.099 21.31 12.61L20.25 13.67L19.19 12.61C18.1583 11.5783 16.759 10.9987 15.3 10.9987C13.841 10.9987 12.4417 11.5783 11.41 12.61C10.3783 13.6417 9.79871 15.041 9.79871 16.5C9.79871 17.959 10.3783 19.3583 11.41 20.39L20.25 29.23L29.09 20.39C29.601 19.8792 30.0063 19.2728 30.2829 18.6053C30.5595 17.9379 30.7018 17.2225 30.7018 16.5C30.7018 15.7775 30.5595 15.0621 30.2829 14.3946C30.0063 13.7272 29.601 13.1208 29.09 12.61Z" stroke="#EF6A3F" stroke-width="2.5" stroke-linecap="round" stroke-linejoin="round"/>
</g>
</g>
<defs>
<clipPath id="clip0_161_468">
<rect width="24" height="24" fill="white" transform="translate(8.25 8)"/>
</clipPath>
</defs>
</svg>
