<svg width="40" height="40" viewBox="0 0 40 40" fill="none" xmlns="http://www.w3.org/2000/svg">
<g opacity="0.7">
<circle cx="20" cy="20" r="20" fill="#FCDCC5" fill-opacity="0.5"/>
<g clip-path="url(#clip0_163_470)">
<path d="M29.0901 12.61C28.5794 12.099 27.9729 11.6936 27.3055 11.4171C26.638 11.1405 25.9226 10.9982 25.2001 10.9982C24.4776 10.9982 23.7622 11.1405 23.0948 11.4171C22.4273 11.6936 21.8209 12.099 21.3101 12.61L20.2501 13.67L19.1901 12.61C18.1584 11.5783 16.7592 10.9987 15.3001 10.9987C13.8411 10.9987 12.4418 11.5783 11.4101 12.61C10.3784 13.6417 9.79883 15.041 9.79883 16.5C9.79883 17.959 10.3784 19.3583 11.4101 20.39L20.2501 29.23L29.0901 20.39C29.6011 19.8792 30.0065 19.2728 30.283 18.6053C30.5596 17.9379 30.7019 17.2225 30.7019 16.5C30.7019 15.7775 30.5596 15.0621 30.283 14.3946C30.0065 13.7272 29.6011 13.1208 29.0901 12.61Z" fill="#EF6A3F" stroke="#EF6A3F" stroke-width="2.5" stroke-linecap="round" stroke-linejoin="round"/>
</g>
</g>
<defs>
<clipPath id="clip0_163_470">
<rect width="24" height="24" fill="white" transform="translate(8.25 8)"/>
</clipPath>
</defs>
</svg>
