<svg width="30" height="30" viewBox="0 0 30 30" fill="none" xmlns="http://www.w3.org/2000/svg">
<path d="M22.9464 15.9105C22.9872 20.3168 26.8122 21.7833 26.8544 21.802C26.822 21.9051 26.2433 23.8917 24.8394 25.9432C23.6258 27.7169 22.3661 29.4841 20.3821 29.5212C18.4326 29.5568 17.8056 28.3647 15.5765 28.3647C13.348 28.3647 12.6517 29.4841 10.806 29.5568C8.89069 29.6294 7.43217 27.6384 6.2085 25.8715C3.70819 22.2565 1.79733 15.6562 4.36303 11.201C5.63756 8.9885 7.91569 7.58764 10.3881 7.55155C12.2687 7.51569 14.0439 8.8167 15.1935 8.8167C16.3424 8.8167 18.4996 7.25202 20.7674 7.4817C21.7169 7.52131 24.3817 7.86514 26.0929 10.3701C25.9553 10.4557 22.9133 12.2266 22.9464 15.9105ZM19.2824 5.09038C20.2991 3.85967 20.9835 2.14592 20.7969 0.441315C19.3312 0.500143 17.5588 1.41795 16.5076 2.64819C15.5655 3.73733 14.7405 5.48108 14.9629 7.15194C16.5967 7.2785 18.2655 6.32178 19.2824 5.09038Z" fill="#F855DA"/>
</svg>
