<svg width="30" height="30" viewBox="0 0 30 30" fill="none" xmlns="http://www.w3.org/2000/svg">
<g clip-path="url(#clip0_213_737)">
<path d="M10.4508 0.98673C7.45335 2.02658 4.86834 4.00024 3.07548 6.61783C1.28262 9.23541 0.376419 12.3589 0.489976 15.5296C0.603533 18.7003 1.73087 21.751 3.70638 24.2336C5.6819 26.7162 8.40148 28.4999 11.4657 29.3227C13.9499 29.9637 16.5526 29.9918 19.05 29.4047C21.3125 28.8965 23.4042 27.8095 25.1203 26.25C26.9065 24.5774 28.2029 22.4496 28.8703 20.0953C29.5958 17.5352 29.7249 14.8428 29.2477 12.225H15.2977V18.0117H23.3766C23.2151 18.9347 22.8691 19.8155 22.3593 20.6017C21.8495 21.3878 21.1863 22.0629 20.4094 22.5867C19.4229 23.2393 18.3108 23.6784 17.1446 23.8758C15.9749 24.0933 14.7752 24.0933 13.6055 23.8758C12.42 23.6307 11.2985 23.1414 10.3125 22.4391C8.72851 21.3178 7.53912 19.7248 6.9141 17.8875C6.2785 16.0158 6.2785 13.9866 6.9141 12.1149C7.359 10.8029 8.09449 9.6083 9.06566 8.62032C10.177 7.46895 11.5841 6.64594 13.1324 6.2416C14.6808 5.83725 16.3106 5.86719 17.843 6.32814C19.0401 6.69562 20.1348 7.33768 21.0399 8.20314C21.9508 7.29689 22.8602 6.38829 23.768 5.47735C24.2368 4.98751 24.7477 4.5211 25.2094 4.01954C23.8279 2.73394 22.2063 1.73358 20.4375 1.07579C17.2165 -0.093763 13.6922 -0.125194 10.4508 0.98673Z" fill="white"/>
<path d="M10.4504 0.986709C13.6915 -0.12597 17.2158 -0.0953667 20.4371 1.07343C22.2062 1.73569 23.8271 2.74086 25.2066 4.03124C24.7379 4.5328 24.2434 5.00155 23.7652 5.48905C22.8559 6.39687 21.9473 7.30155 21.0395 8.20312C20.1344 7.33766 19.0397 6.6956 17.8426 6.32811C16.3106 5.86555 14.6809 5.83388 13.1322 6.23657C11.5834 6.63927 10.1755 7.46076 9.06289 8.61093C8.09172 9.5989 7.35623 10.7935 6.91133 12.1055L2.05273 8.34374C3.79182 4.89506 6.80293 2.25708 10.4504 0.986709Z" fill="#F855DA"/>
<path d="M0.764251 12.0703C1.02539 10.7761 1.45895 9.52272 2.05331 8.34375L6.91191 12.1148C6.27632 13.9866 6.27632 16.0158 6.91191 17.8875C5.29316 19.1375 3.67363 20.3938 2.05331 21.6563C0.565385 18.6945 0.111593 15.3199 0.764251 12.0703Z" fill="#F855DA"/>
<path d="M15.2979 12.2227H29.2479C29.7251 14.8405 29.596 17.5328 28.8706 20.093C28.2032 22.4472 26.9067 24.575 25.1206 26.2477C23.5526 25.0242 21.9776 23.8102 20.4096 22.5867C21.187 22.0624 21.8505 21.3865 22.3604 20.5995C22.8702 19.8126 23.216 18.9308 23.3768 18.007H15.2979C15.2956 16.0805 15.2979 14.1516 15.2979 12.2227Z" fill="#F855DA"/>
<path d="M2.05078 21.6563C3.67109 20.4063 5.29062 19.15 6.90937 17.8875C7.53564 19.7255 8.72673 21.3185 10.3125 22.4391C11.3016 23.1381 12.4255 23.6234 13.6125 23.8641C14.7822 24.0816 15.9819 24.0816 17.1516 23.8641C18.3178 23.6667 19.4299 23.2276 20.4164 22.575C21.9844 23.7984 23.5594 25.0125 25.1273 26.2359C23.4115 27.7962 21.3197 28.8841 19.057 29.393C16.5596 29.9801 13.9569 29.952 11.4727 29.3109C9.50789 28.7864 7.67268 27.8616 6.08203 26.5945C4.39842 25.2579 3.02333 23.5734 2.05078 21.6563Z" fill="#F855DA"/>
</g>
<defs>
<clipPath id="clip0_213_737">
<rect width="30" height="30" fill="white"/>
</clipPath>
</defs>
</svg>
