<svg width="36" height="36" viewBox="0 0 36 36" fill="none" xmlns="http://www.w3.org/2000/svg">
<path d="M31.2599 6.91499C30.4938 6.1485 29.5842 5.54046 28.583 5.12562C27.5818 4.71077 26.5087 4.49725 25.4249 4.49725C24.3412 4.49725 23.2681 4.71077 22.2669 5.12562C21.2657 5.54046 20.3561 6.1485 19.5899 6.91499L17.9999 8.50499L16.4099 6.91499C14.8624 5.36745 12.7635 4.49806 10.5749 4.49806C8.38638 4.49806 6.28747 5.36745 4.73993 6.91499C3.1924 8.46253 2.323 10.5614 2.323 12.75C2.323 14.9385 3.1924 17.0375 4.73993 18.585L17.9999 31.845L31.2599 18.585C32.0264 17.8189 32.6345 16.9092 33.0493 15.908C33.4641 14.9068 33.6777 13.8337 33.6777 12.75C33.6777 11.6663 33.4641 10.5931 33.0493 9.59196C32.6345 8.59077 32.0264 7.68113 31.2599 6.91499Z" fill="#EF6A3F" stroke="#EF6A3F" stroke-width="3.5" stroke-linecap="round" stroke-linejoin="round"/>
</svg>
