<svg width="26" height="26" viewBox="0 0 26 26" fill="none" xmlns="http://www.w3.org/2000/svg">
<path d="M22.1688 5.30208C21.6368 4.76979 21.0051 4.34754 20.3098 4.05946C19.6145 3.77137 18.8693 3.62309 18.1167 3.62309C17.3642 3.62309 16.6189 3.77137 15.9237 4.05946C15.2284 4.34754 14.5967 4.76979 14.0647 5.30208L12.9605 6.40624L11.8563 5.30208C10.7816 4.2274 9.32407 3.62365 7.80424 3.62365C6.28442 3.62365 4.82684 4.2274 3.75216 5.30208C2.67748 6.37676 2.07373 7.83433 2.07373 9.35416C2.07373 10.874 2.67748 12.3316 3.75216 13.4062L12.9605 22.6146L22.1688 13.4062C22.7011 12.8742 23.1234 12.2425 23.4114 11.5472C23.6995 10.852 23.8478 10.1068 23.8478 9.35416C23.8478 8.60157 23.6995 7.85635 23.4114 7.16108C23.1234 6.46581 22.7011 5.83412 22.1688 5.30208Z" stroke="#EF6A3F" stroke-width="2" stroke-linecap="round" stroke-linejoin="round"/>
</svg>
