<svg width="140" height="50" viewBox="0 0 140 50" fill="none" xmlns="http://www.w3.org/2000/svg">
<path d="M2.583 15.295C1.365 12.691 1.092 10.36 1.764 8.302C2.436 6.202 3.717 4.732 5.607 3.892C7.539 3.052 9.492 3.052 11.466 3.892C13.482 4.69 14.952 6.391 15.876 8.995C16.338 10.297 16.674 11.809 16.884 13.531C17.094 15.211 17.325 16.849 17.577 18.445C17.871 19.999 18.333 21.301 18.963 22.351C19.635 23.359 20.664 23.863 22.05 23.863C23.436 23.863 24.465 23.359 25.137 22.351C25.809 21.301 26.271 19.999 26.523 18.445C26.817 16.849 27.048 15.211 27.216 13.531C27.426 11.809 27.762 10.297 28.224 8.995C29.19 6.391 30.66 4.69 32.634 3.892C34.608 3.052 36.561 3.052 38.493 3.892C40.383 4.732 41.664 6.202 42.336 8.302C43.008 10.36 42.735 12.691 41.517 15.295C40.887 16.639 40.047 17.92 38.997 19.138C37.989 20.314 36.876 21.532 35.658 22.792C34.44 24.052 33.222 25.459 32.004 27.013C30.786 28.525 29.673 30.268 28.665 32.242V43.015C28.665 44.737 28.035 46.165 26.775 47.299C25.515 48.433 23.94 49 22.05 49C20.202 49 18.627 48.433 17.325 47.299C16.065 46.165 15.435 44.737 15.435 43.015V32.242C14.469 30.268 13.377 28.525 12.159 27.013C10.941 25.459 9.723 24.052 8.505 22.792C7.287 21.532 6.153 20.314 5.103 19.138C4.053 17.92 3.213 16.639 2.583 15.295ZM54.3219 49.126C49.4079 49.126 45.4809 47.677 42.5409 44.779C39.6429 41.839 38.1939 37.702 38.1939 32.368C38.1939 29.092 38.8659 26.215 40.2099 23.737C41.5539 21.259 43.4229 19.327 45.8169 17.941C48.2529 16.513 51.0879 15.799 54.3219 15.799C57.9339 15.799 60.9369 16.513 63.3309 17.941C65.7249 19.327 67.5099 21.259 68.6859 23.737C69.9039 26.215 70.5129 29.092 70.5129 32.368C70.5129 37.702 69.1689 41.839 66.4809 44.779C63.8349 47.677 59.7819 49.126 54.3219 49.126ZM45.6909 31.297C45.6909 32.599 46.3419 33.523 47.6439 34.069C48.9459 34.573 51.1719 34.825 54.3219 34.825C57.4719 34.825 59.6979 34.573 60.9999 34.069C62.3019 33.523 62.9529 32.599 62.9529 31.297C62.9529 30.037 62.3019 29.155 60.9999 28.651C59.6979 28.147 57.4719 27.895 54.3219 27.895C51.1719 27.895 48.9459 28.147 47.6439 28.651C46.3419 29.155 45.6909 30.037 45.6909 31.297ZM80.0128 49C78.0388 49 76.5058 48.433 75.4138 47.299C74.3218 46.165 73.7758 44.737 73.7758 43.015V22.351C73.7758 20.545 74.3218 19.054 75.4138 17.878C76.5058 16.66 78.0388 16.051 80.0128 16.051C81.9868 16.051 83.4988 16.66 84.5488 17.878C85.5988 19.054 86.1238 20.503 86.1238 22.225V23.548H87.3208C87.4888 21.322 88.3288 19.495 89.8408 18.067C91.3528 16.639 93.1378 15.925 95.1958 15.925C97.2538 15.925 98.8708 16.555 100.047 17.815C101.265 19.075 101.874 20.755 101.874 22.855C101.874 24.829 101.307 26.467 100.173 27.769C99.0388 29.071 97.5898 29.722 95.8258 29.722C94.3558 29.722 93.1168 29.386 92.1088 28.714C91.1428 28 90.4288 27.181 89.9668 26.257C88.6228 26.089 87.6358 26.236 87.0058 26.698C86.4178 27.118 86.1238 27.979 86.1238 29.281V43.015C86.1238 44.737 85.5988 46.165 84.5488 47.299C83.4988 48.433 81.9868 49 80.0128 49ZM110.416 49C108.568 49 107.098 48.454 106.006 47.362C104.914 46.228 104.368 44.842 104.368 43.204V6.727C104.368 4.963 104.893 3.472 105.943 2.254C107.035 1.036 108.568 0.426998 110.542 0.426998C112.474 0.426998 113.923 1.036 114.889 2.254C115.897 3.472 116.401 4.984 116.401 6.79V25.879L116.59 25.942C116.8 24.178 117.346 22.561 118.228 21.091C119.11 19.579 120.349 18.361 121.945 17.437C123.541 16.513 125.494 16.051 127.804 16.051C130.912 16.051 133.411 16.912 135.301 18.634C137.191 20.356 138.136 22.708 138.136 25.69C138.136 27.748 137.716 29.386 136.876 30.604C136.078 31.78 134.986 32.599 133.6 33.061C132.214 33.523 130.681 33.733 129.001 33.691V34.762C132.739 34.762 135.385 35.518 136.939 37.03C138.535 38.5 139.333 40.369 139.333 42.637C139.333 44.737 138.703 46.354 137.443 47.488C136.183 48.622 134.671 49.168 132.907 49.126C130.975 49.084 129.379 48.517 128.119 47.425C126.859 46.333 125.809 44.863 124.969 43.015L122.26 37.282C121.714 36.148 121 35.329 120.118 34.825C119.278 34.321 118.039 34.132 116.401 34.258V43.204C116.401 44.842 115.855 46.228 114.763 47.362C113.713 48.454 112.264 49 110.416 49ZM117.724 29.974C117.724 30.562 118.018 31.003 118.606 31.297C119.236 31.549 120.517 31.675 122.449 31.675C124.339 31.675 125.599 31.549 126.229 31.297C126.859 31.045 127.174 30.604 127.174 29.974C127.174 29.386 126.859 28.945 126.229 28.651C125.599 28.357 124.36 28.21 122.512 28.21C120.538 28.21 119.236 28.357 118.606 28.651C118.018 28.945 117.724 29.386 117.724 29.974Z" fill="#EF6A3F"/>
</svg>
