<svg width="506" height="179" viewBox="0 0 506 179" fill="none" xmlns="http://www.w3.org/2000/svg">
<path d="M7.43 54.95C2.98333 45.4433 1.98667 36.9333 4.44 29.42C6.89333 21.7533 11.57 16.3867 18.47 13.32C25.5233 10.2533 32.6533 10.2533 39.86 13.32C47.22 16.2333 52.5867 22.4433 55.96 31.95C57.6467 36.7033 58.8733 42.2233 59.64 48.51C60.4067 54.6433 61.25 60.6233 62.17 66.45C63.2433 72.1233 64.93 76.8767 67.23 80.71C69.6833 84.39 73.44 86.23 78.5 86.23C83.56 86.23 87.3167 84.39 89.77 80.71C92.2233 76.8767 93.91 72.1233 94.83 66.45C95.9033 60.6233 96.7467 54.6433 97.36 48.51C98.1267 42.2233 99.3533 36.7033 101.04 31.95C104.567 22.4433 109.933 16.2333 117.14 13.32C124.347 10.2533 131.477 10.2533 138.53 13.32C145.43 16.3867 150.107 21.7533 152.56 29.42C155.013 36.9333 154.017 45.4433 149.57 54.95C147.27 59.8567 144.203 64.5333 140.37 68.98C136.69 73.2733 132.627 77.72 128.18 82.32C123.733 86.92 119.287 92.0567 114.84 97.73C110.393 103.25 106.33 109.613 102.65 116.82V156.15C102.65 162.437 100.35 167.65 95.75 171.79C91.15 175.93 85.4 178 78.5 178C71.7533 178 66.0033 175.93 61.25 171.79C56.65 167.65 54.35 162.437 54.35 156.15V116.82C50.8233 109.613 46.8367 103.25 42.39 97.73C37.9433 92.0567 33.4967 86.92 29.05 82.32C24.6033 77.72 20.4633 73.2733 16.63 68.98C12.7967 64.5333 9.73 59.8567 7.43 54.95ZM195.788 178.46C177.848 178.46 163.511 173.17 152.778 162.59C142.198 151.857 136.908 136.753 136.908 117.28C136.908 105.32 139.361 94.8167 144.268 85.77C149.175 76.7233 155.998 69.67 164.738 64.61C173.631 59.3967 183.981 56.79 195.788 56.79C208.975 56.79 219.938 59.3967 228.678 64.61C237.418 69.67 243.935 76.7233 248.228 85.77C252.675 94.8167 254.898 105.32 254.898 117.28C254.898 136.753 249.991 151.857 240.178 162.59C230.518 173.17 215.721 178.46 195.788 178.46ZM164.278 113.37C164.278 118.123 166.655 121.497 171.408 123.49C176.161 125.33 184.288 126.25 195.788 126.25C207.288 126.25 215.415 125.33 220.168 123.49C224.921 121.497 227.298 118.123 227.298 113.37C227.298 108.77 224.921 105.55 220.168 103.71C215.415 101.87 207.288 100.95 195.788 100.95C184.288 100.95 176.161 101.87 171.408 103.71C166.655 105.55 164.278 108.77 164.278 113.37ZM289.05 178C281.843 178 276.247 175.93 272.26 171.79C268.273 167.65 266.28 162.437 266.28 156.15V80.71C266.28 74.1167 268.273 68.6733 272.26 64.38C276.247 59.9333 281.843 57.71 289.05 57.71C296.257 57.71 301.777 59.9333 305.61 64.38C309.443 68.6733 311.36 73.9633 311.36 80.25V85.08H315.73C316.343 76.9533 319.41 70.2833 324.93 65.07C330.45 59.8567 336.967 57.25 344.48 57.25C351.993 57.25 357.897 59.55 362.19 64.15C366.637 68.75 368.86 74.8833 368.86 82.55C368.86 89.7567 366.79 95.7367 362.65 100.49C358.51 105.243 353.22 107.62 346.78 107.62C341.413 107.62 336.89 106.393 333.21 103.94C329.683 101.333 327.077 98.3433 325.39 94.97C320.483 94.3567 316.88 94.8933 314.58 96.58C312.433 98.1133 311.36 101.257 311.36 106.01V156.15C311.36 162.437 309.443 167.65 305.61 171.79C301.777 175.93 296.257 178 289.05 178ZM399.517 178C392.77 178 387.404 176.007 383.417 172.02C379.43 167.88 377.437 162.82 377.437 156.84V23.67C377.437 17.23 379.354 11.7867 383.187 7.33999C387.174 2.89333 392.77 0.669994 399.977 0.669994C407.03 0.669994 412.32 2.89333 415.847 7.33999C419.527 11.7867 421.367 17.3067 421.367 23.9V93.59L422.057 93.82C422.824 87.38 424.817 81.4767 428.037 76.11C431.257 70.59 435.78 66.1433 441.607 62.77C447.434 59.3967 454.564 57.71 462.997 57.71C474.344 57.71 483.467 60.8533 490.367 67.14C497.267 73.4267 500.717 82.0133 500.717 92.9C500.717 100.413 499.184 106.393 496.117 110.84C493.204 115.133 489.217 118.123 484.157 119.81C479.097 121.497 473.5 122.263 467.367 122.11V126.02C481.014 126.02 490.674 128.78 496.347 134.3C502.174 139.667 505.087 146.49 505.087 154.77C505.087 162.437 502.787 168.34 498.187 172.48C493.587 176.62 488.067 178.613 481.627 178.46C474.574 178.307 468.747 176.237 464.147 172.25C459.547 168.263 455.714 162.897 452.647 156.15L442.757 135.22C440.764 131.08 438.157 128.09 434.937 126.25C431.87 124.41 427.347 123.72 421.367 124.18V156.84C421.367 162.82 419.374 167.88 415.387 172.02C411.554 176.007 406.264 178 399.517 178ZM426.197 108.54C426.197 110.687 427.27 112.297 429.417 113.37C431.717 114.29 436.394 114.75 443.447 114.75C450.347 114.75 454.947 114.29 457.247 113.37C459.547 112.45 460.697 110.84 460.697 108.54C460.697 106.393 459.547 104.783 457.247 103.71C454.947 102.637 450.424 102.1 443.677 102.1C436.47 102.1 431.717 102.637 429.417 103.71C427.27 104.783 426.197 106.393 426.197 108.54Z" fill="#EF6A3F"/>
</svg>
