<svg width="21" height="21" viewBox="0 0 21 21" fill="none" xmlns="http://www.w3.org/2000/svg">
<g clip-path="url(#clip0_166_1273)">
<path d="M13.8332 1.95833V3H18.2082C18.3739 3 18.5329 3.06585 18.6501 3.18306C18.7673 3.30027 18.8332 3.45924 18.8332 3.625C18.8332 3.79076 18.7673 3.94973 18.6501 4.06694C18.5329 4.18415 18.3739 4.25 18.2082 4.25H2.7915C2.62574 4.25 2.46677 4.18415 2.34956 4.06694C2.23235 3.94973 2.1665 3.79076 2.1665 3.625C2.1665 3.45924 2.23235 3.30027 2.34956 3.18306C2.46677 3.06585 2.62574 3 2.7915 3H7.1665V1.95833C7.1665 1.15333 7.81984 0.5 8.62484 0.5H12.3748C13.1798 0.5 13.8332 1.15333 13.8332 1.95833ZM8.4165 1.95833V3H12.5832V1.95833C12.5832 1.90308 12.5612 1.85009 12.5222 1.81102C12.4831 1.77195 12.4301 1.75 12.3748 1.75H8.62484C8.56958 1.75 8.51659 1.77195 8.47752 1.81102C8.43845 1.85009 8.4165 1.90308 8.4165 1.95833ZM4.664 5.64833C4.65688 5.56605 4.63352 5.486 4.59527 5.4128C4.55702 5.3396 4.50464 5.27471 4.44116 5.22187C4.37768 5.16904 4.30436 5.12931 4.22543 5.10498C4.1465 5.08065 4.06354 5.07221 3.98133 5.08014C3.89912 5.08807 3.8193 5.11221 3.74648 5.15118C3.67366 5.19014 3.60928 5.24315 3.55707 5.30714C3.50486 5.37114 3.46585 5.44484 3.44229 5.524C3.41874 5.60316 3.4111 5.68621 3.41984 5.76833L4.5965 17.9333C4.6317 18.2939 4.79984 18.6285 5.06819 18.8719C5.33654 19.1153 5.68588 19.2501 6.04817 19.25H14.9515C15.3139 19.25 15.6634 19.1151 15.9317 18.8716C16.2001 18.628 16.3682 18.2932 16.4032 17.9325L17.5807 5.76833C17.5966 5.60324 17.5463 5.43858 17.4408 5.31059C17.3353 5.18259 17.1833 5.10175 17.0182 5.08583C16.8531 5.06992 16.6884 5.12024 16.5604 5.22573C16.4324 5.33122 16.3516 5.48324 16.3357 5.64833L15.159 17.8117C15.154 17.8632 15.13 17.9111 15.0916 17.9459C15.0533 17.9808 15.0033 18 14.9515 18H6.04817C5.99636 18 5.94639 17.9808 5.90802 17.9459C5.86966 17.9111 5.84564 17.8632 5.84067 17.8117L4.664 5.64833Z" fill="black"/>
<path d="M8.17145 6.75082C8.25343 6.74597 8.33555 6.75733 8.41314 6.78423C8.49072 6.81114 8.56224 6.85307 8.62361 6.90763C8.68498 6.96219 8.735 7.02831 8.77081 7.10221C8.80661 7.17611 8.8275 7.25634 8.83229 7.33832L9.24895 14.4217C9.25868 14.5873 9.2022 14.75 9.09195 14.874C8.98169 14.9981 8.82669 15.0732 8.66104 15.0829C8.49539 15.0926 8.33266 15.0362 8.20865 14.9259C8.08464 14.8156 8.00951 14.6606 7.99979 14.495L7.58312 7.41165C7.57827 7.32968 7.58963 7.24756 7.61653 7.16997C7.64344 7.09239 7.68537 7.02087 7.73993 6.9595C7.79449 6.89813 7.86061 6.84811 7.93451 6.8123C8.00841 6.7765 8.08864 6.75561 8.17062 6.75082H8.17145ZM13.4156 7.41165C13.4253 7.246 13.3689 7.08328 13.2586 6.95927C13.1484 6.83526 12.9934 6.76013 12.8277 6.7504C12.6621 6.74068 12.4993 6.79716 12.3753 6.90741C12.2513 7.01767 12.1762 7.17267 12.1665 7.33832L11.7498 14.4217C11.7401 14.5872 11.7965 14.7498 11.9067 14.8737C12.0169 14.9977 12.1717 15.0728 12.3373 15.0825C12.5028 15.0922 12.6654 15.0358 12.7894 14.9256C12.9133 14.8154 12.9884 14.6605 12.9981 14.495L13.4156 7.41165Z" fill="black"/>
</g>
<defs>
<clipPath id="clip0_166_1273">
<rect width="20" height="20" fill="white" transform="translate(0.5 0.5)"/>
</clipPath>
</defs>
</svg>
