<svg width="21" height="22" viewBox="0 0 21 22" fill="none" xmlns="http://www.w3.org/2000/svg">
<path d="M14.4605 13.0625C13.1792 13.0625 12.5631 13.75 10.4604 13.75C8.35777 13.75 7.74616 13.0625 6.46045 13.0625C3.14795 13.0625 0.460449 15.6492 0.460449 18.8375V19.9375C0.460449 21.0762 1.42027 22 2.60331 22H18.3176C19.5006 22 20.4604 21.0762 20.4604 19.9375V18.8375C20.4604 15.6492 17.7729 13.0625 14.4605 13.0625ZM18.3176 19.9375H2.60331V18.8375C2.60331 16.7922 4.33545 15.125 6.46045 15.125C7.11224 15.125 8.17027 15.8125 10.4604 15.8125C12.7685 15.8125 13.8042 15.125 14.4605 15.125C16.5854 15.125 18.3176 16.7922 18.3176 18.8375V19.9375ZM10.4604 12.375C14.0096 12.375 16.889 9.60352 16.889 6.1875C16.889 2.77148 14.0096 0 10.4604 0C6.91134 0 4.03188 2.77148 4.03188 6.1875C4.03188 9.60352 6.91134 12.375 10.4604 12.375ZM10.4604 2.0625C12.8221 2.0625 14.7462 3.91445 14.7462 6.1875C14.7462 8.46055 12.8221 10.3125 10.4604 10.3125C8.09884 10.3125 6.17474 8.46055 6.17474 6.1875C6.17474 3.91445 8.09884 2.0625 10.4604 2.0625Z" fill="#EF6A3F"/>
</svg>
