<svg width="21" height="26" viewBox="0 0 21 26" fill="none" xmlns="http://www.w3.org/2000/svg">
<path d="M0.460449 6.73913H20.4604V20.8941C20.4575 23.4366 18.4844 25.4969 16.0499 25.5H4.87129C2.43645 25.4969 0.463419 23.4366 0.460449 20.8945V20.8942V6.73913ZM18.3749 8.91686H2.54599V20.8941C2.54774 22.2345 3.58777 23.3204 4.87113 23.3223H16.0496C17.3331 23.3204 18.3732 22.2344 18.3749 20.8943V20.8942V8.91686ZM15.4865 10.9421H13.401V5.74824C13.401 4.05244 12.0845 2.67768 10.4604 2.67768C8.83636 2.67768 7.51985 4.05244 7.51985 5.74824V10.9421H5.43441V5.74824C5.43441 2.84973 7.68466 0.5 10.4605 0.5C13.2364 0.5 15.4866 2.84973 15.4866 5.74829L15.4865 10.9421Z" fill="#EF6A3F"/>
</svg>
