<svg width="15" height="16" viewBox="0 0 15 16" fill="none" xmlns="http://www.w3.org/2000/svg">
<path d="M7.58177 0.0133332C8.45509 0 9.32175 0.00666658 10.1884 0C10.2417 1.01999 10.6084 2.05997 11.3551 2.77997C12.1017 3.51996 13.155 3.85995 14.1817 3.97328V6.65992C13.2217 6.62658 12.255 6.42659 11.3817 6.01326C11.0017 5.83993 10.6484 5.61993 10.3017 5.39327C10.2951 7.33991 10.3084 9.28655 10.2884 11.2265C10.2351 12.1598 9.92841 13.0865 9.38842 13.8532C8.51509 15.1331 7.00178 15.9665 5.44846 15.9931C4.49514 16.0465 3.54182 15.7865 2.7285 15.3065C1.38185 14.5132 0.435194 13.0598 0.295196 11.4999C0.281863 11.1665 0.275196 10.8332 0.288529 10.5065C0.408528 9.23988 1.03519 8.02657 2.00851 7.19991C3.11516 6.23992 4.66181 5.77993 6.10846 6.05326C6.12179 7.03991 6.08179 8.02657 6.08179 9.01322C5.4218 8.79989 4.64847 8.85989 4.06848 9.25988C3.64849 9.53321 3.32849 9.95321 3.16183 10.4265C3.02183 10.7665 3.06183 11.1399 3.06849 11.4999C3.22849 12.5932 4.28181 13.5132 5.4018 13.4132C6.14846 13.4065 6.86178 12.9732 7.24844 12.3398C7.37511 12.1198 7.51511 11.8932 7.52177 11.6332C7.58844 10.4399 7.56177 9.25322 7.56844 8.0599C7.5751 5.37327 7.56177 2.6933 7.58177 0.0133332Z" fill="#48531A"/>
</svg>
