<svg width="29" height="29" viewBox="0 0 29 29" fill="none" xmlns="http://www.w3.org/2000/svg">
<path fill-rule="evenodd" clip-rule="evenodd" d="M8.52197 0.0872441C10.0686 0.0163523 10.5616 0.000244141 14.5 0.000244141C18.4391 0.000244141 18.9313 0.0171564 20.4772 0.0872441C22.0214 0.157332 23.076 0.403028 23.9983 0.761494C24.9657 1.12572 25.842 1.6964 26.5664 2.43383C27.3039 3.15808 27.8747 4.03449 28.2388 5.00194C28.5972 5.9243 28.8421 6.97878 28.913 8.52221C28.9839 10.0689 29 10.5619 29 14.5002C29 18.4386 28.9831 18.9316 28.913 20.4783C28.8429 22.0217 28.5972 23.0762 28.2388 23.9985C27.8682 24.9516 27.3719 25.7611 26.5664 26.5666C25.8422 27.3041 24.9657 27.8749 23.9983 28.239C23.076 28.5974 22.0214 28.8423 20.4781 28.9132C18.9313 28.9842 18.4383 29.0002 14.5 29.0002C10.5616 29.0002 10.0686 28.9834 8.52197 28.9132C6.97853 28.8431 5.92405 28.5974 5.0017 28.239C4.04872 27.8685 3.23914 27.3722 2.43359 26.5666C1.69603 25.8424 1.12531 24.966 0.76125 23.9985C0.402784 23.0762 0.157892 22.0217 0.087 20.4783C0.0161082 18.9316 0 18.4394 0 14.5002C0 10.5611 0.0169123 10.0689 0.087 8.52303C0.157088 6.97878 0.402784 5.9243 0.76125 5.00194C1.12548 4.03455 1.69616 3.15819 2.43359 2.43383C3.15782 1.69627 4.03423 1.12555 5.0017 0.761494C5.92405 0.403028 6.97853 0.158136 8.52197 0.0872441ZM20.3596 2.69724C18.8306 2.62796 18.3715 2.61266 14.5 2.61266C10.6285 2.61266 10.1693 2.62796 8.64039 2.69724C7.22664 2.76169 6.45895 2.99771 5.94822 3.19669C5.27155 3.4593 4.78822 3.77346 4.28072 4.28096C3.77403 4.78846 3.45905 5.2718 3.19645 5.94846C2.99747 6.45919 2.76145 7.22689 2.697 8.64064C2.62772 10.1696 2.61241 10.6287 2.61241 14.5002C2.61241 18.3717 2.62772 18.8309 2.697 20.3598C2.76145 21.7736 2.99747 22.5413 3.19645 23.0521C3.42874 23.6819 3.79925 24.2516 4.28072 24.7196C4.74854 25.201 5.31835 25.5715 5.94822 25.8038C6.45895 26.0028 7.22664 26.2388 8.64039 26.3032C10.1693 26.3726 10.6277 26.3879 14.5 26.3879C18.3723 26.3879 18.8306 26.3726 20.3596 26.3032C21.7733 26.2388 22.541 26.0028 23.0518 25.8038C23.7285 25.5412 24.2118 25.2271 24.7193 24.7196C25.2007 24.2518 25.5713 23.6819 25.8035 23.0521C26.0026 22.5413 26.2385 21.7736 26.303 20.3598C26.3723 18.8309 26.3876 18.3717 26.3876 14.5002C26.3876 10.6287 26.3723 10.1696 26.303 8.64064C26.2385 7.22689 26.0026 6.45919 25.8035 5.94846C25.541 5.2718 25.2268 4.78846 24.7193 4.28096C24.2118 3.77428 23.7285 3.4593 23.0518 3.19669C22.541 2.99771 21.7733 2.76169 20.3596 2.69724ZM12.6486 18.9701C13.2356 19.2133 13.8646 19.3384 14.5 19.3384C15.7833 19.3384 17.0138 18.8286 17.9211 17.9213C18.8285 17.014 19.3383 15.7834 19.3383 14.5002C19.3383 13.2171 18.8285 11.9865 17.9211 11.0791C17.0138 10.1718 15.7833 9.66207 14.5 9.66207C13.8646 9.66207 13.2356 9.78722 12.6486 10.0304C12.0615 10.2735 11.5282 10.6299 11.0789 11.0791C10.6297 11.5284 10.2733 12.0617 10.0302 12.6487C9.78701 13.2357 9.66188 13.8649 9.66188 14.5002C9.66188 15.1356 9.78701 15.7648 10.0302 16.3518C10.2733 16.9387 10.6297 17.4721 11.0789 17.9213C11.5282 18.3706 12.0615 18.727 12.6486 18.9701ZM9.22998 9.23017C10.6277 7.83246 12.5234 7.04723 14.5 7.04723C16.4767 7.04723 18.3724 7.83246 19.7701 9.23017C21.1678 10.6279 21.953 12.5236 21.953 14.5002C21.953 16.4769 21.1678 18.3725 19.7701 19.7703C18.3724 21.168 16.4767 21.9532 14.5 21.9532C12.5234 21.9532 10.6277 21.168 9.22998 19.7703C7.83227 18.3725 7.04704 16.4769 7.04704 14.5002C7.04704 12.5236 7.83227 10.6279 9.22998 9.23017ZM23.6056 8.15765C23.9359 7.82725 24.1215 7.37915 24.1215 6.91191C24.1215 6.44465 23.9359 5.99655 23.6056 5.66616C23.2751 5.33577 22.8271 5.15016 22.3598 5.15016C21.8926 5.15016 21.4444 5.33577 21.1141 5.66616C20.7836 5.99655 20.598 6.44465 20.598 6.91191C20.598 7.37915 20.7836 7.82725 21.1141 8.15765C21.4444 8.48804 21.8926 8.67366 22.3598 8.67366C22.8271 8.67366 23.2751 8.48804 23.6056 8.15765Z" fill="#EF6A3F"/>
</svg>
