<svg width="26" height="29" viewBox="0 0 26 29" fill="none" xmlns="http://www.w3.org/2000/svg">
<path d="M13.2322 0.0244105C14.8151 0.000244141 16.3859 0.0123273 17.9567 0.000244141C18.0534 1.84897 18.7179 3.73395 20.0713 5.03893C21.4246 6.38016 23.3337 6.99641 25.1945 7.20182V12.0713C23.4545 12.0109 21.7025 11.6484 20.1196 10.8993C19.4308 10.5851 18.7904 10.1864 18.1621 9.77554C18.15 13.3038 18.1742 16.8321 18.1379 20.3483C18.0413 22.04 17.4855 23.7195 16.5067 25.1091C14.9238 27.4291 12.1809 28.9395 9.36556 28.9878C7.63766 29.0845 5.90977 28.6132 4.43562 27.7432C1.99481 26.3053 0.279003 23.6712 0.0252559 20.8437C0.00108953 20.2396 -0.0109936 19.6354 0.0131727 19.0433C0.23067 16.7475 1.36649 14.5484 3.13063 13.0501C5.13644 11.3101 7.93974 10.4764 10.5618 10.9718C10.586 12.7601 10.5135 14.5484 10.5135 16.3367C9.31722 15.95 7.91557 16.0588 6.86434 16.7838C6.1031 17.2792 5.5231 18.0404 5.22102 18.8983C4.96728 19.5146 5.03978 20.1912 5.05186 20.8437C5.34186 22.8254 7.251 24.4929 9.28097 24.3116C10.6343 24.2995 11.9272 23.5141 12.628 22.3662C12.8576 21.9675 13.1113 21.5566 13.1234 21.0854C13.2443 18.9225 13.1959 16.7717 13.208 14.6088C13.2201 9.73929 13.1959 4.88185 13.2322 0.0244105Z" fill="#EF6A3F"/>
</svg>
