<svg width="1363" height="500" viewBox="0 0 1363 500" fill="none" xmlns="http://www.w3.org/2000/svg">
<g opacity="0.3">
<path d="M1150.95 105.688C1150.95 47.5956 1198 0.502686 1256.03 0.502686C1314.06 0.502686 1361.11 47.5956 1361.11 105.688C1361.11 163.78 1314.06 210.872 1256.03 210.872C1198 210.872 1150.95 163.78 1150.95 105.688Z" fill="#F855DA"/>
<path d="M956.506 105.688C956.506 47.5956 1003.55 0.502686 1061.58 0.502686C1119.62 0.502686 1166.66 47.5956 1166.66 105.688C1166.66 163.78 1119.62 210.872 1061.58 210.872C1003.55 210.872 956.506 163.78 956.506 105.688Z" fill="#F855DA"/>
<path d="M762.063 105.688C762.063 47.5956 809.108 0.502686 867.141 0.502686C925.174 0.502686 972.219 47.5956 972.219 105.688C972.219 163.78 925.174 210.872 867.141 210.872C809.108 210.872 762.063 163.78 762.063 105.688Z" fill="#F855DA"/>
<path d="M571.547 105.688C571.547 47.5956 618.592 0.502686 676.625 0.502686C734.658 0.502686 781.703 47.5956 781.703 105.688C781.703 163.78 734.658 210.872 676.625 210.872C618.592 210.872 571.547 163.78 571.547 105.688Z" fill="#F855DA"/>
<path d="M381.031 105.688C381.031 47.5956 428.076 0.502686 486.11 0.502686C544.143 0.502686 591.188 47.5956 591.188 105.688C591.188 163.78 544.143 210.872 486.11 210.872C428.076 210.872 381.031 163.78 381.031 105.688Z" fill="#F855DA"/>
<path d="M190.516 105.688C190.516 47.5956 237.561 0.502686 295.594 0.502686C353.627 0.502686 400.672 47.5956 400.672 105.688C400.672 163.78 353.627 210.872 295.594 210.872C237.561 210.872 190.516 163.78 190.516 105.688Z" fill="#F855DA"/>
<path d="M-0.00012207 105.688C-0.00012207 47.5956 47.045 0.502686 105.078 0.502686C163.111 0.502686 210.156 47.5956 210.156 105.688C210.156 163.78 163.111 210.872 105.078 210.872C47.045 210.872 -0.00012207 163.78 -0.00012207 105.688Z" fill="#F855DA"/>
<path d="M1363 500.003H-0.00012207V105.685H1363L1363 500.003Z" fill="#F855DA"/>
</g>
</svg>
