<svg width="1440" height="644" viewBox="0 0 1440 644" fill="none" xmlns="http://www.w3.org/2000/svg">
<g opacity="0.3">
<path d="M37 644C96.0945 644 144 596.094 144 537C144 477.906 96.0945 430 37 430C23.806 430 11.1698 432.388 -0.5 436.756V637.244C11.1698 641.612 23.806 644 37 644Z" fill="#EF6A3F"/>
<circle cx="235" cy="537" r="107" fill="#EF6A3F"/>
<circle cx="433" cy="537" r="107" fill="#EF6A3F"/>
<circle cx="627" cy="537" r="107" fill="#EF6A3F"/>
<circle cx="821" cy="537" r="107" fill="#EF6A3F"/>
<circle cx="1015" cy="537" r="107" fill="#EF6A3F"/>
<circle cx="1209" cy="537" r="107" fill="#EF6A3F"/>
<path d="M1296 537C1296 596.094 1343.91 644 1403 644C1416.01 644 1428.47 641.68 1440 637.43V436.57C1428.47 432.32 1416.01 430 1403 430C1343.91 430 1296 477.906 1296 537Z" fill="#EF6A3F"/>
<rect width="1440" height="537" fill="#EF6A3F"/>
</g>
</svg>
