<svg width="73" height="30" viewBox="0 0 73 30" fill="none" xmlns="http://www.w3.org/2000/svg">
<path d="M13.548 29.9879L14.0611 29.9999H14.443C18.1781 29.8925 21.3523 28.3769 23.6196 25.6084C25.8154 22.9235 27.0325 19.1526 27.0325 15.0118C27.0325 10.859 25.8154 7.10007 23.6196 4.4151C21.3404 1.6466 18.1781 0.13108 14.443 0.0236816H14.0611H14.0492H14.0134H13.9537H13.9299H13.548V0.0356156C9.80096 0.154947 6.63866 1.67046 4.35941 4.43896C2.1637 7.12393 0.94651 10.8829 0.94651 15.0237C0.94651 19.1645 2.1637 22.9235 4.35941 25.6084C6.62673 28.3531 9.80096 29.8686 13.548 29.9879ZM3.42862 14.9879C3.42862 7.51773 7.77232 2.26712 13.9895 2.23132C20.2067 2.26712 24.5504 7.51773 24.5504 14.9879C24.5504 22.47 20.2067 27.7087 13.9895 27.7445C7.77232 27.7206 3.42862 22.47 3.42862 14.9879Z" fill="black"/>
<path d="M60.7797 15.5966L61.2213 15.6801C65.7678 16.5989 70.0638 17.4701 70.0638 21.7541C70.0638 26.4916 65.1831 27.7445 62.3072 27.7445C58.775 27.7445 55.9229 26.7899 54.2881 25.0476C53.0351 23.7111 52.4504 21.9211 52.5816 19.7374L52.6055 19.3436H50.0995V19.7135C50.0637 22.661 50.9229 25.0357 52.6413 26.778C54.7296 28.8782 58.0709 29.9999 62.3072 29.9999C64.7893 29.9999 67.2476 29.3317 69.0495 28.1861C71.3407 26.7183 72.5459 24.4987 72.5459 21.766C72.5459 15.6682 66.8299 14.4987 62.6533 13.6514L61.9611 13.5083C57.5578 12.6133 53.405 11.7779 53.405 7.80418C53.405 3.69917 57.3549 2.24332 60.732 2.24332C66.0304 2.24332 69.1807 4.71349 69.3597 9.0333L69.3717 9.3913H71.8538L71.8299 8.9975C71.5793 3.2815 67.522 -0.00012207 60.7201 -0.00012207C55.8394 -0.00012207 50.911 2.41038 50.911 7.80418C50.9229 13.5679 56.3883 14.6896 60.7797 15.5966Z" fill="black"/>
<path d="M39.6579 29.3318L50.2785 0.656372H47.6651L38.1901 26.4798L28.7867 0.656372H26.1376L36.6985 29.3318H39.6579Z" fill="black"/>
</svg>
