<svg width="74" height="16" viewBox="0 0 74 16" fill="none" xmlns="http://www.w3.org/2000/svg">
<path d="M27.2891 12.6163C27.265 11.0816 27.2166 9.28097 25.1381 8.66465C26.9387 8.32628 28.1955 7.09366 28.1955 4.71299C28.1955 1.65559 25.9598 0.0120835 22.6245 0.0120835H16.7876V16H18.8057V9.51057H24.3284C25.4281 10.4411 25.1985 11.4562 25.1985 12.7492C25.1985 13.6798 25.3073 15.0574 26.0928 15.9879H28.3526C27.555 15.0816 27.3012 13.7764 27.2891 12.6163ZM18.8541 7.6858V1.86103H22.6728C25.0293 1.86103 26.1653 2.86405 26.1653 4.68882C26.1653 6.5136 25.0293 7.6858 22.6728 7.6858H18.8541ZM12.981 15.9879H15.0595L9.30726 0H6.29819L0.545929 15.9879H2.62448L4.11088 11.855H11.5067L12.981 15.9879ZM4.76345 10.0302L7.79668 1.55891L10.8299 10.0302H4.76345ZM38.6366 5.53474L44.0021 0.0120835H41.2589L33.126 8.36254V0H31.0958V15.9879H33.126V11.1903L37.126 7.08157L38.8903 11.5166C39.4583 12.9305 40.1713 14.9366 40.9689 15.9879H43.2287C42.3103 14.7311 41.5369 12.9909 40.8964 11.3474L38.6366 5.53474ZM57.561 1.83686V0.0120835H46.4432V16H57.561V14.1631H48.4734V8.67674H56.6909V6.85196H48.4734V1.83686H57.561ZM73.0535 0.0120835H59.6396V1.83686H65.3314V16H67.3616V1.83686H73.0535V0.0120835Z" fill="black"/>
</svg>
